<svg width="1004" height="351" viewBox="0 0 1004 351" fill="none" xmlns="http://www.w3.org/2000/svg">
<path d="M440.741 213.099C424.248 213.099 410.896 226.46 410.896 242.953C410.896 259.446 424.258 272.807 440.741 272.807C457.215 272.807 470.586 259.446 470.586 242.953C470.586 226.46 457.215 213.099 440.741 213.099ZM440.741 251.973C435.784 251.973 431.721 247.929 431.721 242.962C431.721 237.996 435.784 233.952 440.741 233.952C445.689 233.952 449.742 237.996 449.742 242.962C449.742 247.929 445.698 251.973 440.741 251.973Z" fill="white"/>
<path d="M658.062 218.494L653.179 178.781C652.219 171.159 645.557 165.568 637.87 165.988L627.173 166.584L593.964 136.664C590.759 133.785 586.631 132.201 582.326 132.201L514.855 132.192C499.714 132.192 485.029 137.363 473.223 146.849L435.579 177.095L384.955 189.748C378.451 191.37 373.886 197.221 373.886 203.921V218.513C371.742 218.503 370 220.236 370 222.379V241.677C370 244.425 372.227 246.652 374.976 246.652H403.554C403.432 245.413 403.181 244.23 403.181 242.963C403.181 222.212 419.99 205.421 440.732 205.421C461.473 205.421 478.274 222.212 478.274 242.963C478.274 244.239 478.013 245.422 477.891 246.652H557.028C556.916 245.413 556.665 244.23 556.665 242.963C556.665 222.212 573.474 205.421 594.206 205.421C614.957 205.421 631.739 222.212 631.739 242.963C631.739 244.239 631.496 245.422 631.366 246.652H658.024C660.773 246.652 662.991 244.425 662.991 241.677V223.479C663.037 220.739 660.81 218.494 658.062 218.494ZM557.923 169.696L463.794 174.458L481.814 159.968C491.607 152.095 503.776 147.809 516.346 147.809H557.923V169.696ZM573.558 168.904V147.818H579.68C581.804 147.818 583.845 148.601 585.42 150.026L604.633 167.32L573.558 168.904Z" fill="white"/>
<path d="M594.225 213.099C577.732 213.099 564.38 226.46 564.38 242.953C564.38 259.446 577.742 272.807 594.225 272.807C610.708 272.807 624.07 259.446 624.07 242.953C624.07 226.46 610.708 213.099 594.225 213.099ZM594.225 251.973C589.259 251.973 585.215 247.929 585.215 242.962C585.215 237.996 589.259 233.952 594.225 233.952C599.173 233.952 603.235 237.996 603.235 242.962C603.235 247.929 599.182 251.973 594.225 251.973Z" fill="white"/>
<path d="M147.15 227.55C148.45 227.55 149.45 228.15 150.15 229.35C150.95 230.55 151.35 232.2 151.35 234.3C151.35 238.2 150.4 241.3 148.5 243.6C143.7 249.4 138.85 253.9 133.95 257.1C129.05 260.2 123.25 261.75 116.55 261.75C110.05 261.75 104.5 260 99.9 256.5C95.4 253 91.1 247 87 238.5C83.7 231.7 81.1 226.7 79.2 223.5C77.3 220.2 75.4 217.85 73.5 216.45C71.7 215.05 69.45 214.2 66.75 213.9C66.35 216 65.2 222.6 63.3 233.7C62.5 238.7 62 241.75 61.8 242.85C60.8 248.95 58.8 253.65 55.8 256.95C52.8 260.15 48.25 261.75 42.15 261.75C35.45 261.75 29.5 259.8 24.3 255.9C19.2 251.9 15.25 246.4 12.45 239.4C9.65 232.3 8.25 224.25 8.25 215.25C8.25 198.45 11.15 183.95 16.95 171.75C22.85 159.55 31.05 150.25 41.55 143.85C52.15 137.35 64.35 134.1 78.15 134.1C87.75 134.1 95.8 135.55 102.3 138.45C108.8 141.35 113.6 145.35 116.7 150.45C119.9 155.55 121.5 161.3 121.5 167.7C121.5 173.3 120.15 178.8 117.45 184.2C114.85 189.5 110.9 194.2 105.6 198.3C100.3 202.4 93.85 205.45 86.25 207.45C91.05 208.75 94.75 210.85 97.35 213.75C99.95 216.65 102.55 220.9 105.15 226.5C107.95 232.5 110.7 236.9 113.4 239.7C116.2 242.5 119.4 243.9 123 243.9C126.2 243.9 129.25 242.85 132.15 240.75C135.05 238.55 138.7 234.85 143.1 229.65C144.3 228.25 145.65 227.55 147.15 227.55ZM46.05 213.75C42.65 213.75 40.3 212.95 39 211.35C37.8 209.75 37.2 207.95 37.2 205.95C37.2 203.55 37.95 201.65 39.45 200.25C41.05 198.85 42.85 198.15 44.85 198.15H48.6C50.2 188.35 51.7 179.9 53.1 172.8C54.4 166.3 58.6 163.05 65.7 163.05C71.4 163.05 74.25 165.6 74.25 170.7C74.25 171.8 74.2 172.65 74.1 173.25L69.6 198.15C75 197.85 79.9 196.55 84.3 194.25C88.8 191.95 92.35 188.75 94.95 184.65C97.65 180.55 99 175.9 99 170.7C99 164.4 96.85 159.45 92.55 155.85C88.25 152.25 81.95 150.45 73.65 150.45C63.85 150.45 55.25 152.9 47.85 157.8C40.55 162.6 34.85 169.8 30.75 179.4C26.65 188.9 24.6 200.5 24.6 214.2C24.6 220.6 25.25 226.1 26.55 230.7C27.85 235.3 29.45 238.75 31.35 241.05C33.25 243.35 35.05 244.5 36.75 244.5C38.05 244.5 39.1 243.85 39.9 242.55C40.8 241.25 41.5 239.15 42 236.25L46.05 213.75ZM201.653 227.55C202.953 227.55 203.953 228.15 204.653 229.35C205.453 230.55 205.853 232.2 205.853 234.3C205.853 238.3 204.903 241.4 203.003 243.6C199.303 248.1 194.053 252.25 187.253 256.05C180.553 259.85 173.353 261.75 165.653 261.75C155.153 261.75 147.003 258.9 141.203 253.2C135.403 247.5 132.503 239.7 132.503 229.8C132.503 222.9 133.953 216.5 136.853 210.6C139.753 204.6 143.753 199.85 148.853 196.35C154.053 192.85 159.903 191.1 166.403 191.1C172.203 191.1 176.853 192.85 180.353 196.35C183.853 199.75 185.603 204.4 185.603 210.3C185.603 217.2 183.103 223.15 178.103 228.15C173.203 233.05 164.853 236.95 153.053 239.85C155.553 244.45 160.303 246.75 167.303 246.75C171.803 246.75 176.903 245.2 182.603 242.1C188.403 238.9 193.403 234.75 197.603 229.65C198.803 228.25 200.153 227.55 201.653 227.55ZM163.853 205.8C160.153 205.8 157.003 207.95 154.403 212.25C151.903 216.55 150.653 221.75 150.653 227.85V228.15C156.553 226.75 161.203 224.65 164.603 221.85C168.003 219.05 169.703 215.8 169.703 212.1C169.703 210.2 169.153 208.7 168.053 207.6C167.053 206.4 165.653 205.8 163.853 205.8ZM202.789 261.75C198.989 261.75 196.289 259.75 194.689 255.75C193.189 251.75 192.439 245.35 192.439 236.55C192.439 223.55 194.289 211.2 197.989 199.5C198.889 196.6 200.339 194.5 202.339 193.2C204.439 191.8 207.339 191.1 211.039 191.1C213.039 191.1 214.439 191.35 215.239 191.85C216.039 192.35 216.439 193.3 216.439 194.7C216.439 196.3 215.689 199.9 214.189 205.5C213.189 209.5 212.389 213 211.789 216C211.189 219 210.689 222.7 210.289 227.1C213.589 218.5 217.289 211.5 221.389 206.1C225.489 200.7 229.489 196.85 233.389 194.55C237.389 192.25 241.039 191.1 244.339 191.1C250.839 191.1 254.089 194.35 254.089 200.85C254.089 204.75 252.989 211.8 250.789 222C248.889 230.7 247.939 236.45 247.939 239.25C247.939 243.25 249.389 245.25 252.289 245.25C254.289 245.25 256.639 244.05 259.339 241.65C262.139 239.15 265.839 235.15 270.439 229.65C271.639 228.25 272.989 227.55 274.489 227.55C275.789 227.55 276.789 228.15 277.489 229.35C278.289 230.55 278.689 232.2 278.689 234.3C278.689 238.3 277.739 241.4 275.839 243.6C271.539 248.9 266.889 253.25 261.889 256.65C256.989 260.05 251.389 261.75 245.089 261.75C239.989 261.75 236.139 260.3 233.539 257.4C230.939 254.4 229.639 250.1 229.639 244.5C229.639 241.7 230.339 236.7 231.739 229.5C233.039 223.2 233.689 218.85 233.689 216.45C233.689 214.85 233.139 214.05 232.039 214.05C230.739 214.05 228.889 215.75 226.489 219.15C224.189 222.45 221.789 226.85 219.289 232.35C216.889 237.85 214.939 243.65 213.439 249.75C212.339 254.45 211.039 257.65 209.539 259.35C208.139 260.95 205.889 261.75 202.789 261.75ZM289.804 205.35C289.604 210.35 289.504 214.25 289.504 217.05C289.504 224.25 289.854 229.9 290.554 234C291.354 238 292.604 240.9 294.304 242.7C296.104 244.4 298.554 245.25 301.654 245.25C303.254 245.25 305.154 244.75 307.354 243.75C309.554 242.75 311.554 241.45 313.354 239.85C314.454 238.85 315.554 238.35 316.654 238.35C317.854 238.35 318.804 239.05 319.504 240.45C320.304 241.75 320.704 243.35 320.704 245.25C320.704 247.15 320.304 249 319.504 250.8C318.804 252.6 317.704 254.1 316.204 255.3C311.004 259.6 305.104 261.75 298.504 261.75C289.004 261.75 282.054 257.8 277.654 249.9C273.254 241.9 271.054 231.5 271.054 218.7C271.054 214.3 271.204 209.85 271.504 205.35H265.654C262.654 205.35 260.604 204.8 259.504 203.7C258.504 202.6 258.004 200.85 258.004 198.45C258.004 192.85 260.254 190.05 264.754 190.05H273.304C275.004 179.05 277.604 169 281.104 159.9C284.604 150.8 288.804 143.55 293.704 138.15C298.704 132.75 304.054 130.05 309.754 130.05C313.954 130.05 317.254 131.9 319.654 135.6C322.054 139.3 323.254 143.95 323.254 149.55C323.254 165.05 316.754 178.55 303.754 190.05H320.554C322.154 190.05 323.304 190.4 324.004 191.1C324.704 191.8 325.054 193.1 325.054 195C325.054 201.9 319.404 205.35 308.104 205.35H289.804ZM305.704 144.45C304.204 144.45 302.504 146.35 300.604 150.15C298.804 153.85 297.054 159.05 295.354 165.75C293.754 172.35 292.404 179.7 291.304 187.8C297.204 182.7 301.604 177 304.504 170.7C307.504 164.3 309.004 158.5 309.004 153.3C309.004 147.4 307.904 144.45 305.704 144.45Z" fill="white"/>
<path d="M752.4 205C756.133 205 758 207.8 758 213.4C758 223.933 749.733 229.2 733.2 229.2C730 229.2 725.4 228.6 719.4 227.4C721.133 235.667 722.533 244.867 723.6 255C724.8 265 725.4 273.267 725.4 279.8C725.4 294.2 723.067 305.2 718.4 312.8C713.733 320.4 707.6 324.2 700 324.2C690.4 324.2 683.533 317.4 679.4 303.8C675.4 290.2 673.4 269.667 673.4 242.2C673.4 216.6 676.133 190.667 681.6 164.4C687.2 138 694.8 116.2 704.4 99C714.133 81.6667 724.8 73 736.4 73C742.667 73 747.533 75.8 751 81.4C754.6 87 756.4 94.5333 756.4 104C756.4 135.333 737.667 169.467 700.2 206.4C698.867 219.467 698.2 230.933 698.2 240.8C698.2 254.533 698.667 268.6 699.6 283C700.533 297.533 702.067 304.8 704.2 304.8C708.2 304.8 710.2 297.867 710.2 284C710.2 273.6 709.467 263.533 708 253.8C706.667 244.067 704.8 233.8 702.4 223C702.267 221.267 702.8 219.067 704 216.4C705.333 213.733 706.933 211.4 708.8 209.4C710.667 207.4 712.333 206.4 713.8 206.4C716.467 206.4 719.667 206.533 723.4 206.8C724.6 206.933 726 207 727.6 207C732.933 207 738.867 206.533 745.4 205.6C746.467 205.467 747.6 205.333 748.8 205.2C750 205.067 751.2 205 752.4 205ZM732.2 92.8C729.8 92.8 726.8 96.8667 723.2 105C719.733 113.133 716.267 123.933 712.8 137.4C709.333 150.733 706.333 164.867 703.8 179.8C714.467 167.667 722.667 155.067 728.4 142C734.133 128.8 737.067 116.467 737.2 105C737.2 96.8667 735.533 92.8 732.2 92.8ZM768.489 262C760.222 262 753.622 259 748.689 253C743.756 247 741.289 239.133 741.289 229.4C741.289 218.733 743.756 208.667 748.689 199.2C753.622 189.6 760.156 181.933 768.289 176.2C776.556 170.333 785.289 167.4 794.489 167.4C797.422 167.4 799.356 168 800.289 169.2C801.356 170.267 802.222 172.267 802.889 175.2C805.689 174.667 808.622 174.4 811.689 174.4C818.222 174.4 821.489 176.733 821.489 181.4C821.489 184.2 820.489 190.867 818.489 201.4C815.422 216.733 813.889 227.4 813.889 233.4C813.889 235.4 814.356 237 815.289 238.2C816.356 239.4 817.689 240 819.289 240C821.822 240 824.889 238.4 828.489 235.2C832.089 231.867 836.956 226.533 843.089 219.2C844.689 217.333 846.489 216.4 848.489 216.4C850.222 216.4 851.556 217.2 852.489 218.8C853.556 220.4 854.089 222.6 854.089 225.4C854.089 230.733 852.822 234.867 850.289 237.8C844.822 244.6 839.022 250.333 832.889 255C826.756 259.667 820.822 262 815.089 262C810.689 262 806.622 260.533 802.889 257.6C799.289 254.533 796.556 250.4 794.689 245.2C787.756 256.4 779.022 262 768.489 262ZM775.689 241.8C778.622 241.8 781.422 240.067 784.089 236.6C786.756 233.133 788.689 228.533 789.889 222.8L797.289 186C791.689 186.133 786.489 188.267 781.689 192.4C777.022 196.4 773.289 201.733 770.489 208.4C767.689 215.067 766.289 222.133 766.289 229.6C766.289 233.733 767.089 236.8 768.689 238.8C770.422 240.8 772.756 241.8 775.689 241.8ZM875.034 266.4C868.101 266.4 862.768 264.8 859.034 261.6C855.434 258.4 853.634 254.8 853.634 250.8C853.634 247.333 854.901 244.333 857.434 241.8C859.968 239.267 863.701 238 868.634 238C870.368 238 872.368 238.2 874.634 238.6C877.034 238.867 878.834 239.067 880.034 239.2C879.901 235.733 879.101 232.467 877.634 229.4C876.301 226.333 874.568 223.4 872.434 220.6C870.301 217.667 868.301 215.133 866.434 213C862.301 220.867 858.168 227.4 854.034 232.6C850.034 237.8 845.634 242.733 840.834 247.4C838.434 249.8 835.901 251 833.234 251C831.101 251 829.368 250.267 828.034 248.8C826.701 247.2 826.034 245.267 826.034 243C826.034 240.333 826.968 237.867 828.834 235.6L831.434 232.4C838.768 223.333 844.301 215.867 848.034 210C850.301 206.133 852.968 201 856.034 194.6C859.101 188.067 862.101 181.333 865.034 174.4C867.568 168.533 872.834 165.6 880.834 165.6C884.568 165.6 887.168 165.933 888.634 166.6C890.101 167.267 890.834 168.333 890.834 169.8C890.834 170.6 890.568 171.867 890.034 173.6C889.501 175.333 888.768 177.067 887.834 178.8C885.434 183.6 884.234 187.667 884.234 191C884.234 193 884.901 195.2 886.234 197.6C887.701 200 889.901 203 892.834 206.6C897.101 212.2 900.301 217 902.434 221C904.701 224.867 905.834 229.133 905.834 233.8C905.834 235.133 905.701 237 905.434 239.4C911.968 236.867 919.634 230.133 928.434 219.2C930.034 217.333 931.834 216.4 933.834 216.4C935.568 216.4 936.901 217.2 937.834 218.8C938.901 220.4 939.434 222.6 939.434 225.4C939.434 230.467 938.168 234.6 935.634 237.8C928.968 246.067 922.568 251.733 916.434 254.8C910.434 257.733 902.968 259.333 894.034 259.6C888.701 264.133 882.368 266.4 875.034 266.4ZM956.186 186.8C955.919 193.467 955.786 198.667 955.786 202.4C955.786 212 956.253 219.533 957.186 225C958.253 230.333 959.919 234.2 962.186 236.6C964.586 238.867 967.853 240 971.986 240C974.119 240 976.653 239.333 979.586 238C982.519 236.667 985.186 234.933 987.586 232.8C989.053 231.467 990.519 230.8 991.986 230.8C993.586 230.8 994.853 231.733 995.786 233.6C996.853 235.333 997.386 237.467 997.386 240C997.386 242.533 996.853 245 995.786 247.4C994.853 249.8 993.386 251.8 991.386 253.4C984.453 259.133 976.586 262 967.786 262C955.119 262 945.853 256.733 939.986 246.2C934.119 235.533 931.186 221.667 931.186 204.6C931.186 198.733 931.386 192.8 931.786 186.8H923.986C919.986 186.8 917.253 186.067 915.786 184.6C914.453 183.133 913.786 180.8 913.786 177.6C913.786 170.133 916.786 166.4 922.786 166.4H934.186C936.453 151.733 939.919 138.333 944.586 126.2C949.253 114.067 954.853 104.4 961.386 97.2C968.053 90 975.186 86.4 982.786 86.4C988.386 86.4 992.786 88.8667 995.986 93.8C999.186 98.7333 1000.79 104.933 1000.79 112.4C1000.79 133.067 992.119 151.067 974.786 166.4H997.186C999.319 166.4 1000.85 166.867 1001.79 167.8C1002.72 168.733 1003.19 170.467 1003.19 173C1003.19 182.2 995.653 186.8 980.586 186.8H956.186ZM977.386 105.6C975.386 105.6 973.119 108.133 970.586 113.2C968.186 118.133 965.853 125.067 963.586 134C961.453 142.8 959.653 152.6 958.186 163.4C966.053 156.6 971.919 149 975.786 140.6C979.786 132.067 981.786 124.333 981.786 117.4C981.786 109.533 980.319 105.6 977.386 105.6Z" fill="#C7FFB9"/>
<path d="M315 247C334.56 233.509 334.596 202.673 345.336 202.673C356.077 202.673 404 194 404 194" stroke="white" stroke-width="15"/>
</svg>
